# xmcd
#
# Track frame offsets:
#	150
#	29870
#	59440
#	81242
#	106495
#	136280
#	166105
#	189575
#	219877
#	240457
#
# Disc length: 3602 seconds
# Revision: 0
# Processed by: cddbd v1.5.2PL0 Copyright (c) Steve Scherf et al.
# Submitted via: dBpowerAMP V12.0
#
DISCID=870e100a
DTITLE=Various Artist - The History of the House Sound of Chicago
DYEAR=1981
DGENRE=Disco
TTITLE0=D Train - You're the One for Me (Vocal Version)
TTITLE1=Raw Silk - Do It to the Music (Vocal)
TTITLE2=Ripple - The Beat Goes On and On
TTITLE3=Klein and MBO - Dirty Talk
TTITLE4=Martin Circus - Disco Circus
TTITLE5=Fat Larry's Band - Act Like You Know
TTITLE6=T-Connection - At Midnight
TTITLE7=D Train - Keep On
TTITLE8=Telex - Moskow Diskow (Original Version)
TTITLE9=Instant Funk - I Got My Mind Made Up (Larry Levan Remix)
EXTD=
EXTT0=
EXTT1=
EXTT2=
EXTT3=
EXTT4=
EXTT5=
EXTT6=
EXTT7=
EXTT8=
EXTT9=
PLAYORDER=
